<?xml version="1.0" encoding="utf-8"?>
<!-- Generator: Adobe Illustrator 25.1.0, SVG Export Plug-In . SVG Version: 6.00 Build 0)  -->
<svg version="1.1" id="Layer_1" xmlns="http://www.w3.org/2000/svg" xmlns:xlink="http://www.w3.org/1999/xlink" x="0px" y="0px"
	 viewBox="0 0 82.6 82.6" style="enable-background:new 0 0 82.6 82.6;" xml:space="preserve">
<style type="text/css">
	.st0{fill:#FFFFFF;}
</style>
<g>
	<path class="st0" d="M79.52,16.63L65.97,3.09C63.99,1.11,61.31,0,58.52,0H10.54C4.72,0,0,4.72,0,10.54v61.53
		C0,77.89,4.72,82.6,10.54,82.6h61.53c5.82,0,10.54-4.72,10.54-10.54V24.09C82.6,21.29,81.49,18.61,79.52,16.63z M18.23,10.02
		c0-2.35,1.9-4.25,4.25-4.25h37.64c2.35,0,4.25,1.9,4.25,4.25v17.73c0,2.35-1.9,4.25-4.25,4.25H22.48c-2.35,0-4.25-1.9-4.25-4.25
		V10.02z M72.47,72.85c0,2.2-1.78,3.99-3.99,3.99H14.13c-2.2,0-3.99-1.78-3.99-3.99V43.61c0-2.2,1.78-3.99,3.99-3.99h54.35
		c2.2,0,3.99,1.78,3.99,3.99V72.85z"/>
	<rect x="49.49" y="10.23" class="st0" width="9.3" height="16.93"/>
</g>
</svg>
